# xmcd
#
# Track frame offsets:
#	150
#	23260
#	35525
#	49212
#	62962
#	78555
#	91752
#	110025
#	124412
#	138872
#	161750
#	178970
#	191315
#	205665
#
# Disc length: 2922 seconds
#
# Revision: 1
# Processed by: cddbd v1.5.1PL0 Copyright (c) Steve Scherf et al.
# Submitted via: audiograbber 1.83.01
#
DISCID=be0b680e
DTITLE=Jonny Hill - Truck Gold
DYEAR=1996
DGENRE=Country
TTITLE0=Tommy und Strolch
TTITLE1=Bist Du einsam heut Nacht
TTITLE2=Der Junge mit der Mundharmonika
TTITLE3=Einmal noch nach Haus
TTITLE4=Wieviel braucht man zum gluecklichsein?
TTITLE5=Traenen luegen nicht
TTITLE6=Wann wirds mal wieder richtig Sommer
TTITLE7=In dem kleinen Haus am See
TTITLE8=Wenn ich Dich verliere
TTITLE9=El Lute
TTITLE10=Die Zeit wischt die Schminke aus jedem Gesicht
TTITLE11=Erinnerungen an - Tom Dooley -
TTITLE12=Etwas Liebe am Abend
TTITLE13=Jetzt sage ich Euch gute Nacht
EXTD=
EXTT0=
EXTT1=
EXTT2=
EXTT3=
EXTT4=
EXTT5=
EXTT6=
EXTT7=
EXTT8=
EXTT9=
EXTT10=
EXTT11=
EXTT12=
EXTT13=
PLAYORDER=
